<?xml version="1.0" encoding="UTF-8" standalone="no"?>
<svg
   xmlns:dc="http://purl.org/dc/elements/1.1/"
   xmlns:cc="http://creativecommons.org/ns#"
   xmlns:rdf="http://www.w3.org/1999/02/22-rdf-syntax-ns#"
   xmlns:svg="http://www.w3.org/2000/svg"
   xmlns="http://www.w3.org/2000/svg"
   xmlns:sodipodi="http://sodipodi.sourceforge.net/DTD/sodipodi-0.dtd"
   xmlns:inkscape="http://www.inkscape.org/namespaces/inkscape"
   version="1.1"
   width="100"
   height="100"
   id="svg4460"
   sodipodi:docname="location-poi-alt_rsn_dark.svg"
   inkscape:version="0.92.5 (2060ec1f9f, 2020-04-08)">
  <ellipse
     style="fill:#011633;fill-opacity:0.16568047;stroke:none;stroke-width:1.9125284;stroke-miterlimit:4;stroke-dasharray:0, 21.03781366;stroke-dashoffset:0;stroke-opacity:1"
     id="path814"
     cx="50"
     cy="92.870193"
     rx="21.755747"
     ry="6.9042597" />
  <path
     d="m 47.936668,51.831342 c 5.142942,0.59214 9.969199,-0.978193 13.655203,-4.443094 3.742798,-3.51789 5.426372,-7.38275 5.426372,-12.45711 0,-5.13739 -1.700598,-8.985763 -5.555223,-12.572735 -1.703565,-1.584908 -3.943109,-2.886664 -6.384543,-3.71074 -1.996293,-0.673963 -6.420364,-0.841788 -8.793709,-0.333696 -2.642328,0.565514 -5.786403,2.206056 -7.77538,4.056781 -3.722022,3.463106 -5.505347,7.532589 -5.505347,12.560567 0,3.014298 0.440388,4.902119 1.786887,7.655016 0.979543,2.002479 1.346895,2.501928 3.177128,4.32191 1.593315,1.584475 2.467367,2.262142 3.800606,2.946183 2.196399,1.126949 4.109167,1.739973 6.168006,1.977095 z m 0.966479,41.243561 c -0.361811,-0.219624 -1.983428,-1.79598 -3.604849,-3.503257 0,0 -19.310031,-24.028581 -25.795468,-37.851134 -1.281894,-2.73213 -1.940678,-5.457026 -2.495072,-8.703142 -1.700589,-9.954334 0.336081,-19.677005 5.850136,-27.947589 2.099218,-3.148161 6.35782,-7.41639 9.397982,-9.419421 11.092839,-7.3089342 24.458866,-7.2785241 35.60276,0.081044 2.892116,1.9098276 7.192875,6.251655 9.240233,9.328071 3.748553,5.633213 5.746229,11.415238 6.353079,18.39018 0.495396,5.692687 -0.516814,11.966417 -2.67044,17.438446 -5.806666,14.753853 -26.777183,39.313165 -26.777183,39.313165 -3.146251,3.407608 -3.704405,3.722315 -5.101178,2.873684 z"
     style="fill:#011633;stroke-width:4.24781132;fill-opacity:1"
     id="path4135-4"
     inkscape:connector-curvature="0"
     sodipodi:nodetypes="ccsccccscccccccaccccccaccc" />
  <sodipodi:namedview
     pagecolor="#ffffff"
     bordercolor="#666666"
     borderopacity="1"
     objecttolerance="10"
     gridtolerance="10"
     guidetolerance="10"
     inkscape:pageopacity="0"
     inkscape:pageshadow="2"
     inkscape:window-width="1920"
     inkscape:window-height="1015"
     id="namedview11"
     showgrid="false"
     inkscape:zoom="7.89"
     inkscape:cx="19.898606"
     inkscape:cy="50"
     inkscape:window-x="0"
     inkscape:window-y="0"
     inkscape:window-maximized="1"
     inkscape:current-layer="svg4460"
     inkscape:document-rotation="0"
     showguides="true"
     inkscape:guide-bbox="true">
    <sodipodi:guide
       position="20.242024,34.213421"
       orientation="1,0"
       id="guide814"
       inkscape:locked="false" />
    <sodipodi:guide
       position="79.757976,26.842684"
       orientation="1,0"
       id="guide816"
       inkscape:locked="false" />
  </sodipodi:namedview>
  <defs
     id="defs4462" />
  <metadata
     id="metadata4465">
    <rdf:RDF>
      <cc:Work
         rdf:about="">
        <dc:format>image/svg+xml</dc:format>
        <dc:type
           rdf:resource="http://purl.org/dc/dcmitype/StillImage" />
        <dc:title></dc:title>
      </cc:Work>
    </rdf:RDF>
  </metadata>
  <path
     style="color:#000000;font-style:normal;font-variant:normal;font-weight:normal;font-stretch:normal;font-size:medium;line-height:normal;font-family:sans-serif;font-variant-ligatures:normal;font-variant-position:normal;font-variant-caps:normal;font-variant-numeric:normal;font-variant-alternates:normal;font-variant-east-asian:normal;font-feature-settings:normal;font-variation-settings:normal;text-indent:0;text-align:start;text-decoration:none;text-decoration-line:none;text-decoration-style:solid;text-decoration-color:#000000;letter-spacing:normal;word-spacing:normal;text-transform:none;writing-mode:lr-tb;direction:ltr;text-orientation:mixed;dominant-baseline:auto;baseline-shift:baseline;text-anchor:start;white-space:normal;shape-padding:0;shape-margin:0;inline-size:0;clip-rule:nonzero;display:inline;overflow:visible;visibility:visible;isolation:auto;mix-blend-mode:normal;color-interpolation:sRGB;color-interpolation-filters:linearRGB;solid-color:#000000;solid-opacity:1;vector-effect:none;fill:rgb(51, 102, 153);fill-opacity:1;fill-rule:nonzero;stroke:none;stroke-width:4.99996;stroke-linecap:butt;stroke-linejoin:miter;stroke-miterlimit:4;stroke-dasharray:none;stroke-dashoffset:0;stroke-opacity:1;color-rendering:auto;image-rendering:auto;shape-rendering:auto;text-rendering:auto;enable-background:accumulate;stop-color:#000000"
     d="m 68.912802,48.907851 -0.04824,0.126174 c 0.01569,-0.03832 0.02717,-0.07672 0.04267,-0.115041 0.0015,-0.0039 0.004,-0.0072 0.0056,-0.01113 z"
     id="path854" />
</svg>
